<svg width="40" height="40" viewBox="0 0 40 40" fill="none" xmlns="http://www.w3.org/2000/svg">
<path d="M20 9.83332C21.9334 9.83332 23.5 11.4 23.5 13.3333C23.5 15.2667 21.9334 16.8333 20 16.8333C18.0667 16.8333 16.5 15.2667 16.5 13.3333C16.5 11.4 18.0667 9.83332 20 9.83332ZM20 24.8333C24.95 24.8333 30.1667 27.2667 30.1667 28.3333V30.1667H9.83335V28.3333C9.83335 27.2667 15.05 24.8333 20 24.8333ZM20 6.66666C16.3167 6.66666 13.3334 9.64999 13.3334 13.3333C13.3334 17.0167 16.3167 20 20 20C23.6834 20 26.6667 17.0167 26.6667 13.3333C26.6667 9.64999 23.6834 6.66666 20 6.66666ZM20 21.6667C15.55 21.6667 6.66669 23.9 6.66669 28.3333V33.3333H33.3334V28.3333C33.3334 23.9 24.45 21.6667 20 21.6667Z" fill="#394867"/>
</svg>
